# xmcd CD database file
#
# Track frame offsets:
#	150
#	11747
#	26500
#	37005
#	52785
#	66285
#	84932
#	100675
#	111942
#	126025
#	136470
#	149435
#	159942
#	173002
#	187252
#	201295
#	217460
#	235135
#	264782
#	277280
#	292980
#	305382
#	316540
#
# Disc length: 4394 seconds
#
# Revision: 4
# Processed by: cddbd v1.4PL0 Copyright (c) Steve Scherf et al.
# Submitted via: CDex 1.50beta10
#
DISCID=4c112817
DTITLE=Various Artist - Lady sings the blues [CD2)
DYEAR=1900
DGENRE=Blues
TTITLE0=Julie London - Fly me to the moon (in other words)
TTITLE1=Dinah Washington and Andre Previn - The man I love (strike up the band)
TTITLE2=Kay Starr - Baby won't you please come home
TTITLE3=Dinah Washington - Drinking again
TTITLE4=Sue Rainey - When your lover has gone
TTITLE5=Eva Cassidy - Blues in the night
TTITLE6=Tina Turner - Night time is the right time
TTITLE7=Lena Horne/Ray Ellis and Orchestra - In love in vain (centennial summer)
TTITLE8=Nancy Wilson - All night long
TTITLE9=Peggy Lee - A taste of honey
TTITLE10=Sarah Vaughan - 'Round midnight
TTITLE11=Erma Thomas - Wish someone would care
TTITLE12=Betty Swan - Tell it like it is
TTITLE13=Aretha Franklin - (No, no) I'm losing you
TTITLE14=Betty Lavette - Let me down easy
TTITLE15=Soul Children - I'll be the other woman
TTITLE16=Shirley Brown - Woman to woman
TTITLE17=Ruby Turner - I'd rather go blind
TTITLE18=Dinah Washington - You're nobody till somebody loves you
TTITLE19=Sarah Vaughan, Jimmie Jones and Orchestra - Stormy weather
TTITLE20=Little Esther - Aged and mellow blues
TTITLE21=Dorothy Moore - Misty blue
TTITLE22=Billie Holiday and her Orchestra - Summertime (from Porgy and Bess)
EXTD=
EXTT0=
EXTT1=
EXTT2=
EXTT3=
EXTT4=
EXTT5=
EXTT6=
EXTT7=
EXTT8=
EXTT9=
EXTT10=
EXTT11=
EXTT12=
EXTT13=
EXTT14=
EXTT15=
EXTT16=
EXTT17=
EXTT18=
EXTT19=
EXTT20=
EXTT21=
EXTT22=
PLAYORDER=
